<svg width="16" height="16" viewBox="0 0 128 128" xmlns="http://www.w3.org/2000/svg" role="img" aria-label="S icon">
  <defs>
    <linearGradient id="g" x1="0" y1="0" x2="1" y2="1">
      <stop offset="0%" stop-color="#7c3aed"/>
      <stop offset="100%" stop-color="#2563eb"/>
    </linearGradient>
  </defs>
  <rect x="6" y="6" width="116" height="116" rx="24" fill="url(#g)"/>
  <path d="M 32 28 C 32 16 96 16 96 30 C 96 39 86 44 76 47 C 64 51 48 54 42 60 C 35 67 37 78 50 84 C 66 92 96 88 100 78" stroke="#ffffff" stroke-width="12" stroke-linecap="round" stroke-linejoin="round" fill="none"/>
</svg>
<svg width="16" height="16" viewBox="0 0 16 16" xmlns="http://www.w3.org/2000/svg">
  <rect width="16" height="16" rx="3" fill="#4285f4"/>
  <rect x="2" y="4" width="12" height="2" rx="1" fill="white"/>
  <rect x="2" y="7" width="8" height="2" rx="1" fill="white"/>
  <rect x="2" y="10" width="10" height="2" rx="1" fill="white"/>
  <circle cx="13" cy="3" r="2" fill="#ea4335"/>
  <text x="13" y="4.5" text-anchor="middle" fill="white" font-size="3" font-family="Arial">T</text>
</svg>
