<svg width="48" height="48" viewBox="0 0 128 128" xmlns="http://www.w3.org/2000/svg" role="img" aria-label="S icon">
  <defs>
    <linearGradient id="g" x1="0" y1="0" x2="1" y2="1">
      <stop offset="0%" stop-color="#7c3aed"/>
      <stop offset="100%" stop-color="#2563eb"/>
    </linearGradient>
  </defs>
  <rect x="6" y="6" width="116" height="116" rx="24" fill="url(#g)"/>
  <path d="M 32 28 C 32 16 96 16 96 30 C 96 39 86 44 76 47 C 64 51 48 54 42 60 C 35 67 37 78 50 84 C 66 92 96 88 100 78" stroke="#ffffff" stroke-width="12" stroke-linecap="round" stroke-linejoin="round" fill="none"/>
</svg>
<svg width="48" height="48" viewBox="0 0 48 48" xmlns="http://www.w3.org/2000/svg">
  <rect width="48" height="48" rx="8" fill="#4285f4"/>
  <rect x="6" y="12" width="36" height="6" rx="3" fill="white"/>
  <rect x="6" y="21" width="24" height="6" rx="3" fill="white"/>
  <rect x="6" y="30" width="30" height="6" rx="3" fill="white"/>
  <circle cx="39" cy="9" r="6" fill="#ea4335"/>
  <text x="39" y="13" text-anchor="middle" fill="white" font-size="8" font-family="Arial, sans-serif" font-weight="bold">T</text>
</svg>
